<?xml version="1.0" encoding="UTF-8"?>
<!-- Generator: visioncortex VTracer 0.6.3 -->
<svg version="1.1" xmlns="http://www.w3.org/2000/svg" width="2127" height="2048">
<path d="M0 0 C3.67 3 6.97 6.3 10.26 9.7 C11 10.41 11.73 11.12 12.49 11.84 C22.9 22.41 27.62 37.61 32.02 51.45 C32.53 53.02 33.04 54.59 33.55 56.15 C34.61 59.4 35.66 62.64 36.7 65.88 C38.2 70.52 39.71 75.14 41.24 79.76 C41.49 80.5 41.73 81.24 41.98 82 C42.47 83.48 42.96 84.97 43.45 86.45 C44.68 90.18 45.91 93.91 47.14 97.64 C47.5 98.75 47.5 98.75 47.88 99.89 C48.37 101.41 48.87 102.92 49.37 104.44 C50.15 106.82 50.93 109.2 51.72 111.58 C58.21 131.32 64.68 151.07 71.09 170.84 C76.12 186.3 81.19 201.75 86.26 217.2 C92.22 235.36 98.16 253.53 104.07 271.71 C109.44 288.22 114.85 304.71 120.26 321.2 C126.22 339.36 132.16 357.53 138.07 375.71 C143.44 392.22 148.85 408.71 154.26 425.2 C160.22 443.36 166.16 461.53 172.07 479.71 C177.22 495.55 182.41 511.38 187.6 527.21 C195.07 549.95 202.51 572.69 209.9 595.46 C211.51 600.4 213.12 605.35 214.74 610.29 C215.79 613.5 216.84 616.72 217.89 619.94 C218.38 621.43 218.87 622.92 219.36 624.42 C220.03 626.44 220.69 628.46 221.35 630.49 C221.72 631.62 222.09 632.76 222.47 633.92 C223.26 636.7 223.26 636.7 223.26 639.7 C484.29 639.37 745.32 639.04 1014.26 638.7 C1029.45 592.37 1029.45 592.37 1044.57 546.02 C1049.33 531.4 1054.12 516.81 1058.92 502.2 C1064.38 485.54 1069.84 468.88 1075.26 452.2 C1081.11 434.19 1087.01 416.2 1092.92 398.2 C1098.38 381.54 1103.84 364.88 1109.26 348.2 C1114.9 330.86 1120.57 313.53 1126.26 296.2 C1131.99 278.75 1137.71 261.3 1143.38 243.83 C1148.62 227.74 1153.87 211.66 1159.13 195.58 C1164.52 179.12 1169.91 162.66 1175.28 146.19 C1178.27 137.03 1181.27 127.87 1184.26 118.7 C1184.63 117.57 1185 116.45 1185.38 115.28 C1186.54 111.71 1187.71 108.15 1188.87 104.58 C1189.26 103.39 1189.65 102.2 1190.05 100.98 C1193.09 91.67 1196.14 82.36 1199.2 73.05 C1201.09 67.29 1202.97 61.52 1204.82 55.74 C1205.8 52.68 1206.79 49.63 1207.78 46.57 C1208.21 45.24 1208.64 43.9 1209.06 42.56 C1215.34 22.59 1227.31 5.59 1245.92 -4.56 C1264.92 -14.36 1286.85 -16.76 1307.49 -10.68 C1328.44 -3.32 1343.2 9.86 1353.26 29.7 C1354.98 33.45 1356.54 37.25 1358.07 41.08 C1358.53 42.21 1358.99 43.34 1359.46 44.51 C1365.14 58.68 1370.46 72.99 1375.83 87.28 C1380.07 98.57 1384.36 109.83 1388.7 121.08 C1389.31 122.67 1389.92 124.26 1390.53 125.85 C1390.84 126.64 1391.15 127.44 1391.46 128.26 C1391.93 129.46 1391.93 129.46 1392.4 130.68 C1392.87 131.89 1392.87 131.89 1393.34 133.13 C1397.23 143.21 1401.09 153.3 1404.95 163.39 C1410.89 178.92 1416.85 194.44 1422.82 209.96 C1430.61 230.18 1438.36 250.42 1446.08 270.67 C1452.45 287.36 1458.84 304.04 1465.26 320.7 C1472.57 339.68 1479.84 358.67 1487.08 377.67 C1493.45 394.36 1499.84 411.04 1506.26 427.7 C1513.57 446.68 1520.84 465.67 1528.08 484.67 C1534.45 501.36 1540.84 518.04 1547.26 534.7 C1554.57 553.68 1561.84 572.67 1569.08 591.67 C1575.45 608.36 1581.84 625.04 1588.26 641.7 C1595.56 660.67 1602.83 679.65 1610.07 698.65 C1616.22 714.77 1622.39 730.87 1628.59 746.97 C1629.87 750.3 1631.15 753.62 1632.43 756.94 C1633.24 759.05 1634.05 761.16 1634.86 763.27 C1635.25 764.28 1635.64 765.29 1636.04 766.33 C1637.94 771.29 1639.86 776.26 1641.79 781.22 C1665.22 841.53 1682.11 905.1 1682.5 970.22 C1682.5 970.89 1682.51 971.57 1682.51 972.26 C1682.55 977.34 1682.57 982.43 1682.57 987.52 C1682.57 988.27 1682.57 989.01 1682.58 989.79 C1682.6 1014.29 1681.85 1038.42 1678.26 1062.7 C1678.15 1063.44 1678.05 1064.18 1677.94 1064.94 C1665.99 1147.38 1635.42 1225.25 1561.77 1329.8 C1559.39 1332.55 1557.1 1335.36 1554.82 1338.2 C1550.05 1344.06 1544.93 1349.57 1539.77 1355.08 C1537.83 1357.16 1535.92 1359.27 1534.01 1361.38 C1526.88 1369.23 1519.57 1376.84 1511.51 1383.74 C1509.17 1385.78 1506.9 1387.89 1504.63 1390.01 C1498.37 1395.85 1491.95 1401.37 1485.26 1406.7 C1484.14 1407.61 1483.02 1408.52 1481.91 1409.43 C1474.34 1415.58 1466.6 1421.46 1458.73 1427.21 C1452.68 1431.63 1446.71 1436.15 1440.76 1440.7 C1433.37 1446.36 1425.93 1451.92 1418.42 1457.42 C1412.48 1461.78 1406.61 1466.22 1400.76 1470.7 C1393.37 1476.36 1385.93 1481.92 1378.42 1487.42 C1372.48 1491.78 1366.61 1496.22 1360.76 1500.7 C1353.25 1506.45 1345.69 1512.11 1338.07 1517.7 C1333.11 1521.34 1328.17 1525 1323.26 1528.7 C1317.56 1532.99 1311.82 1537.23 1306.07 1541.45 C1298.34 1547.13 1290.71 1552.92 1283.1 1558.74 C1276.59 1563.71 1270.02 1568.58 1263.42 1573.42 C1257.48 1577.78 1251.61 1582.22 1245.76 1586.7 C1238.37 1592.36 1230.93 1597.92 1223.42 1603.42 C1217.48 1607.78 1211.61 1612.22 1205.76 1616.7 C1198.37 1622.36 1190.93 1627.92 1183.42 1633.42 C1177.48 1637.78 1171.61 1642.22 1165.76 1646.7 C1158.38 1652.35 1150.94 1657.91 1143.43 1663.41 C1137.38 1667.85 1131.41 1672.39 1125.45 1676.95 C1119.25 1681.7 1113.02 1686.36 1106.63 1690.85 C1100.42 1695.25 1094.4 1699.91 1088.35 1704.54 C1082.53 1708.99 1076.67 1713.38 1070.76 1717.7 C1063.06 1723.34 1055.46 1729.09 1047.88 1734.88 C1042.7 1738.85 1037.49 1742.79 1032.26 1746.7 C1026.06 1751.33 1019.91 1756.01 1013.76 1760.7 C1006.98 1765.88 1000.19 1771.02 993.36 1776.13 C987.8 1780.29 982.28 1784.49 976.76 1788.7 C969.98 1793.88 963.19 1799.02 956.36 1804.13 C950.8 1808.29 945.28 1812.49 939.76 1816.7 C932.98 1821.88 926.19 1827.02 919.36 1832.13 C913.8 1836.29 908.28 1840.49 902.76 1844.7 C895.98 1849.88 889.19 1855.02 882.36 1860.13 C876.8 1864.29 871.28 1868.49 865.76 1872.7 C858.98 1877.88 852.19 1883.02 845.36 1888.13 C839.8 1892.29 834.28 1896.49 828.76 1900.7 C821.98 1905.88 815.18 1911.03 808.35 1916.13 C802.85 1920.24 797.4 1924.41 791.95 1928.58 C785.2 1933.73 778.42 1938.82 771.57 1943.83 C764.62 1948.91 757.8 1954.14 751.03 1959.45 C744.87 1964.27 738.6 1968.91 732.29 1973.53 C724.96 1978.9 717.74 1984.42 710.53 1989.96 C703.66 1995.23 696.78 2000.49 689.88 2005.72 C687.33 2007.65 684.8 2009.6 682.26 2011.55 C663.84 2025.61 645.6 2034.87 622.03 2035 C620.62 2035.01 619.2 2035.03 617.79 2035.06 C589.85 2035.65 570.11 2022.31 548.7 2005.86 C543.71 2002.03 538.65 1998.29 533.57 1994.58 C526.62 1989.49 519.8 1984.26 513.02 1978.95 C506.96 1974.21 500.78 1969.64 494.57 1965.09 C487.71 1960.06 480.93 1954.91 474.17 1949.74 C468.22 1945.19 462.25 1940.69 456.26 1936.2 C448.42 1930.34 440.62 1924.42 432.83 1918.47 C427.03 1914.05 421.2 1909.65 415.36 1905.28 C408.88 1900.44 402.46 1895.53 396.04 1890.63 C390.8 1886.63 385.54 1882.65 380.26 1878.7 C373.15 1873.39 366.09 1868.01 359.04 1862.63 C353.8 1858.63 348.54 1854.65 343.26 1850.7 C336.15 1845.39 329.09 1840.01 322.04 1834.63 C316.8 1830.63 311.54 1826.65 306.26 1822.7 C299.15 1817.39 292.09 1812.01 285.04 1806.63 C279.8 1802.63 274.54 1798.65 269.26 1794.7 C263.06 1790.07 256.91 1785.4 250.76 1780.7 C244.4 1775.85 238.03 1771.01 231.63 1766.2 C230.67 1765.48 230.67 1765.48 229.69 1764.74 C226.76 1762.55 223.82 1760.38 220.83 1758.26 C219.31 1757.18 219.31 1757.18 217.76 1756.08 C216.88 1755.47 216.01 1754.86 215.1 1754.23 C214.19 1753.47 214.19 1753.47 213.26 1752.7 C213.26 1752.04 213.26 1751.38 213.26 1750.7 C212.68 1750.43 212.1 1750.16 211.5 1749.87 C209.31 1748.73 207.43 1747.47 205.45 1746.01 C204.71 1745.47 203.98 1744.92 203.22 1744.36 C202.03 1743.48 202.03 1743.48 200.82 1742.58 C199.99 1741.96 199.16 1741.35 198.3 1740.71 C191.15 1735.41 184.09 1730.01 177.03 1724.6 C171.5 1720.38 165.92 1716.25 160.26 1712.2 C152.78 1706.85 145.45 1701.31 138.15 1695.72 C132.4 1691.31 126.6 1686.98 120.76 1682.7 C113.13 1677.12 105.6 1671.41 98.1 1665.67 C92.36 1661.28 86.58 1656.97 80.76 1652.7 C73.13 1647.12 65.6 1641.41 58.1 1635.67 C52.36 1631.28 46.58 1626.97 40.76 1622.7 C33.13 1617.12 25.6 1611.41 18.1 1605.67 C12.36 1601.28 6.58 1596.97 0.76 1592.7 C-5.97 1587.78 -12.62 1582.77 -19.24 1577.7 C-28.99 1570.25 -38.84 1562.95 -48.74 1555.7 C-59.54 1547.79 -70.27 1539.8 -80.9 1531.67 C-86.64 1527.28 -92.42 1522.97 -98.24 1518.7 C-105.87 1513.12 -113.4 1507.41 -120.9 1501.67 C-126.64 1497.28 -132.42 1492.97 -138.24 1488.7 C-145.87 1483.12 -153.4 1477.41 -160.9 1471.67 C-166.64 1467.28 -172.42 1462.97 -178.24 1458.7 C-184.97 1453.78 -191.62 1448.77 -198.24 1443.7 C-204.97 1438.56 -211.73 1433.47 -218.55 1428.45 C-219.33 1427.88 -220.11 1427.31 -220.92 1426.72 C-223.91 1424.52 -226.9 1422.32 -229.89 1420.13 C-242.28 1411.03 -253.91 1401.28 -265.26 1390.93 C-267.3 1389.1 -269.37 1387.3 -271.44 1385.51 C-275.43 1382.02 -279.23 1378.37 -282.99 1374.63 C-283.64 1373.97 -284.3 1373.32 -284.97 1372.65 C-286.35 1371.28 -287.72 1369.91 -289.09 1368.54 C-291.16 1366.47 -293.24 1364.41 -295.32 1362.35 C-301.88 1355.82 -308.2 1349.3 -313.9 1342.01 C-315.83 1339.59 -317.88 1337.34 -319.99 1335.08 C-381.54 1267.33 -420.6 1175.41 -443.74 1035.7 C-443.83 1034.77 -443.91 1033.83 -444 1032.86 C-444.71 1024.54 -444.92 1016.28 -444.94 1007.94 C-444.95 1007.25 -444.95 1006.57 -444.95 1005.86 C-444.97 1002.21 -444.98 998.56 -444.98 994.91 C-444.99 991.98 -445 989.04 -445.02 986.1 C-445.65 904.43 -423.2 829.57 -394.06 754.12 C-392.72 750.66 -391.39 747.2 -390.06 743.74 C-385.45 731.78 -380.84 719.83 -376.22 707.88 C-371.03 694.45 -365.85 681.02 -360.68 667.58 C-360.27 666.52 -359.86 665.46 -359.44 664.37 C-352.61 646.61 -345.83 628.85 -339.05 611.08 C-332.3 593.37 -325.51 575.69 -318.68 558.02 C-318.22 556.83 -317.76 555.64 -317.29 554.42 C-315.45 549.67 -313.61 544.91 -311.78 540.15 C-307.07 527.97 -302.37 515.77 -297.68 503.58 C-297.27 502.52 -296.86 501.46 -296.44 500.36 C-289.61 482.62 -282.83 464.85 -276.06 447.08 C-268.8 428.06 -261.49 409.07 -254.16 390.09 C-247.95 374.03 -241.77 357.97 -235.62 341.89 C-229.38 325.59 -223.13 309.3 -216.87 293.02 C-216.45 291.93 -216.03 290.85 -215.6 289.74 C-213.49 284.25 -211.38 278.77 -209.27 273.28 C-206.76 266.75 -204.25 260.22 -201.73 253.68 C-201.32 252.61 -200.91 251.54 -200.48 250.44 C-198.4 245.03 -196.32 239.61 -194.24 234.2 C-190.5 224.48 -186.76 214.75 -183.02 205.03 C-174.1 181.87 -165.21 158.7 -156.37 135.52 C-148.95 116.06 -141.49 96.63 -133.99 77.2 C-133.54 76.03 -133.09 74.86 -132.62 73.65 C-130.08 67.06 -127.52 60.47 -124.97 53.88 C-123.72 50.64 -122.47 47.4 -121.22 44.16 C-120.42 42.08 -119.61 40.01 -118.81 37.93 C-118.27 36.52 -118.27 36.52 -117.72 35.08 C-110.21 15.76 -95.8 0.81 -76.99 -7.98 C-52.42 -17.96 -21.67 -16.13 0 0 Z " fill="#E24328" transform="translate(444.74072265625,13.2958984375)"/>
<path d="M0 0 C8.68 0.49 16.87 2.15 25.31 4.19 C26.66 4.51 28 4.83 29.35 5.15 C40.64 7.86 51.85 10.77 63 14 C63.66 14.19 64.31 14.38 64.99 14.57 C102.95 25.52 140.58 37.62 177 53 C178.2 53.5 179.39 54 180.62 54.52 C219.31 70.81 257.29 88.89 293.34 110.42 C296.64 112.38 299.97 114.28 303.3 116.17 C318.94 125.1 334.12 134.86 349 145 C349.6 145.41 350.2 145.82 350.82 146.24 C370.73 159.8 390.27 173.88 409.23 188.75 C414.6 192.95 420.06 197.03 425.56 201.06 C433.7 207.02 441.73 213.11 449.73 219.25 C461.42 228.23 473.15 237.14 485.05 245.85 C491.2 250.37 497.23 255.04 503.24 259.75 C508.53 263.89 513.89 267.91 519.31 271.88 C530.55 280.1 541.61 288.57 552.67 297.04 C562.73 304.74 572.82 312.37 583.05 319.85 C589.2 324.37 595.22 329.04 601.23 333.75 C606.6 337.95 612.06 342.03 617.56 346.06 C625.7 352.02 633.73 358.11 641.73 364.25 C653.42 373.23 665.15 382.14 677.05 390.85 C683.2 395.37 689.23 400.04 695.24 404.75 C700.53 408.89 705.89 412.91 711.31 416.88 C722.55 425.1 733.61 433.57 744.67 442.04 C754.73 449.74 764.82 457.37 775.05 464.85 C781.2 469.37 787.22 474.04 793.23 478.75 C798.6 482.95 804.06 487.03 809.56 491.06 C817.7 497.02 825.73 503.11 833.73 509.25 C845.42 518.23 857.15 527.14 869.05 535.85 C875.2 540.37 881.22 545.03 887.22 549.74 C893.47 554.63 899.84 559.34 906.24 564.03 C911.82 568.12 917.32 572.29 922.79 576.53 C926.33 579.27 929.92 581.95 933.5 584.62 C939.8 589.33 946.06 594.1 952.31 598.88 C959.05 604.03 965.84 609.11 972.69 614.12 C978.87 618.65 984.97 623.27 991 628 C999.52 634.68 1008.16 641.18 1016.95 647.49 C1018.3 648.49 1019.63 649.52 1020.93 650.58 C1022.9 652.22 1022.9 652.22 1026 654 C1030.98 653.39 1035.3 648.82 1039.12 645.75 C1045.5 640.71 1051.93 635.79 1058.5 631 C1064.75 626.43 1070.91 621.78 1077 617 C1083.87 611.61 1090.85 606.4 1097.89 601.25 C1103.34 597.26 1108.69 593.17 1114 589 C1120.87 583.61 1127.85 578.4 1134.89 573.25 C1140.34 569.26 1145.69 565.17 1151 561 C1157.99 555.52 1165.09 550.21 1172.25 544.96 C1178.28 540.55 1184.21 536.03 1190.12 531.45 C1201.66 522.54 1213.28 513.76 1225.05 505.15 C1231.2 500.63 1237.22 495.96 1243.23 491.25 C1249.36 486.46 1255.61 481.84 1261.89 477.25 C1267.34 473.26 1272.69 469.17 1278 465 C1284.87 459.61 1291.85 454.4 1298.89 449.25 C1304.34 445.26 1309.69 441.17 1315 437 C1321.99 431.52 1329.09 426.21 1336.25 420.96 C1342.28 416.55 1348.21 412.03 1354.12 407.45 C1365.66 398.54 1377.28 389.76 1389.05 381.15 C1395.2 376.63 1401.22 371.96 1407.23 367.25 C1413.36 362.46 1419.61 357.84 1425.89 353.25 C1431.34 349.26 1436.69 345.17 1442 341 C1448.99 335.52 1456.09 330.21 1463.25 324.96 C1469.28 320.55 1475.21 316.03 1481.12 311.45 C1492.66 302.54 1504.28 293.76 1516.05 285.15 C1522.2 280.63 1528.22 275.96 1534.23 271.25 C1540.36 266.46 1546.61 261.84 1552.89 257.25 C1558.34 253.26 1563.69 249.17 1569 245 C1575.87 239.61 1582.85 234.4 1589.89 229.25 C1595.34 225.26 1600.69 221.17 1606 217 C1612.99 211.52 1620.09 206.21 1627.25 200.96 C1633.27 196.55 1639.2 192.03 1645.11 187.46 C1649.15 184.34 1653.2 181.23 1657.25 178.12 C1658.46 177.19 1658.46 177.19 1659.7 176.23 C1674.1 165.22 1689.16 155.1 1704.25 145.06 C1705.11 144.49 1705.96 143.92 1706.84 143.34 C1719.41 134.97 1732 126.68 1745 119 C1745.98 118.42 1746.95 117.85 1747.96 117.25 C1763.17 108.3 1778.6 99.78 1794.19 91.5 C1796.61 90.21 1799.02 88.9 1801.43 87.58 C1813.44 81.03 1825.88 75.35 1838.33 69.68 C1841.83 68.08 1845.32 66.46 1848.81 64.84 C1876.54 52.06 1905.06 41.2 1933.94 31.31 C1934.77 31.03 1935.6 30.74 1936.46 30.44 C1945.88 27.22 1955.32 24.27 1964.93 21.67 C1968.57 20.68 1972.16 19.67 1975.71 18.43 C1981.88 16.29 1988.24 14.79 1994.56 13.19 C1995.94 12.84 1997.32 12.48 1998.69 12.13 C2002.79 11.08 2006.9 10.04 2011 9 C2012.18 8.7 2013.36 8.4 2014.57 8.09 C2020.56 6.58 2026.55 5.08 2032.55 3.61 C2034.77 3.06 2036.98 2.5 2039.19 1.93 C2040.35 1.64 2041.5 1.36 2042.69 1.06 C2043.62 0.83 2044.55 0.59 2045.51 0.35 C2048.39 -0.05 2050.23 0.11 2053 1 C2054.25 2.86 2054.25 2.86 2055.14 5.33 C2055.48 6.26 2055.83 7.19 2056.18 8.14 C2056.53 9.17 2056.89 10.19 2057.25 11.25 C2057.63 12.32 2058.02 13.39 2058.41 14.5 C2059.64 17.99 2060.83 21.49 2062 25 C2062.57 26.71 2062.57 26.71 2063.16 28.46 C2079.26 77.23 2089.93 129.02 2090.24 180.52 C2090.24 181.19 2090.25 181.86 2090.25 182.55 C2090.29 187.64 2090.31 192.73 2090.31 197.81 C2090.31 198.56 2090.31 199.31 2090.32 200.08 C2090.34 224.59 2089.59 248.72 2086 273 C2085.89 273.74 2085.79 274.47 2085.68 275.23 C2073.73 357.67 2043.16 435.55 1969.51 540.09 C1967.13 542.85 1964.84 545.66 1962.56 548.5 C1957.79 554.36 1952.67 559.86 1947.51 565.38 C1945.57 567.46 1943.66 569.57 1941.75 571.68 C1934.62 579.52 1927.31 587.14 1919.25 594.03 C1916.91 596.08 1914.64 598.18 1912.37 600.31 C1906.12 606.14 1899.69 611.66 1893 617 C1891.88 617.91 1890.76 618.82 1889.65 619.73 C1882.08 625.88 1874.34 631.75 1866.47 637.51 C1860.42 641.93 1854.45 646.44 1848.5 651 C1841.11 656.65 1833.67 662.21 1826.16 667.71 C1820.22 672.07 1814.35 676.52 1808.5 681 C1801.11 686.65 1793.67 692.21 1786.16 697.71 C1780.22 702.07 1774.35 706.52 1768.5 711 C1760.99 716.74 1753.43 722.4 1745.81 727.99 C1740.85 731.63 1735.92 735.3 1731 739 C1725.3 743.29 1719.56 747.53 1713.81 751.75 C1706.08 757.42 1698.45 763.21 1690.84 769.04 C1684.33 774.01 1677.77 778.88 1671.16 783.71 C1665.22 788.07 1659.35 792.52 1653.5 797 C1646.11 802.65 1638.67 808.21 1631.16 813.71 C1625.22 818.07 1619.35 822.52 1613.5 827 C1606.11 832.65 1598.67 838.21 1591.16 843.71 C1585.22 848.07 1579.35 852.52 1573.5 857 C1566.12 862.65 1558.68 868.21 1551.18 873.7 C1545.12 878.14 1539.15 882.68 1533.19 887.25 C1526.99 892 1520.76 896.65 1514.37 901.14 C1508.16 905.54 1502.14 910.2 1496.09 914.84 C1490.27 919.29 1484.41 923.67 1478.5 928 C1470.81 933.64 1463.2 939.39 1455.62 945.18 C1450.44 949.15 1445.23 953.09 1440 957 C1433.81 961.63 1427.65 966.31 1421.5 971 C1414.72 976.17 1407.93 981.32 1401.1 986.42 C1395.54 990.58 1390.02 994.79 1384.5 999 C1377.72 1004.17 1370.93 1009.32 1364.1 1014.42 C1358.54 1018.58 1353.02 1022.79 1347.5 1027 C1340.72 1032.17 1333.93 1037.32 1327.1 1042.42 C1321.54 1046.58 1316.02 1050.79 1310.5 1055 C1303.72 1060.17 1296.93 1065.32 1290.1 1070.42 C1284.54 1074.58 1279.02 1078.79 1273.5 1083 C1266.72 1088.17 1259.93 1093.32 1253.1 1098.42 C1247.54 1102.58 1242.02 1106.79 1236.5 1111 C1229.72 1116.17 1222.92 1121.32 1216.09 1126.43 C1210.59 1130.54 1205.14 1134.71 1199.69 1138.88 C1192.95 1144.03 1186.16 1149.11 1179.31 1154.12 C1172.36 1159.21 1165.55 1164.44 1158.77 1169.75 C1152.61 1174.56 1146.34 1179.21 1140.03 1183.82 C1132.7 1189.2 1125.48 1194.71 1118.27 1200.25 C1111.41 1205.53 1104.52 1210.78 1097.62 1216.01 C1095.07 1217.95 1092.54 1219.9 1090 1221.85 C1071.58 1235.9 1053.34 1245.16 1029.77 1245.3 C1028.36 1245.31 1026.94 1245.33 1025.53 1245.36 C997.59 1245.94 977.85 1232.6 956.45 1216.16 C951.45 1212.33 946.39 1208.59 941.31 1204.88 C934.36 1199.79 927.54 1194.56 920.76 1189.25 C914.7 1184.51 908.52 1179.93 902.31 1175.39 C895.45 1170.35 888.67 1165.2 881.91 1160.03 C875.96 1155.49 869.99 1150.98 864 1146.5 C856.16 1140.63 848.36 1134.71 840.57 1128.77 C834.77 1124.34 828.94 1119.95 823.1 1115.58 C816.63 1110.73 810.2 1105.83 803.78 1100.92 C798.54 1096.92 793.28 1092.95 788 1089 C780.89 1083.69 773.83 1078.31 766.78 1072.92 C761.54 1068.92 756.28 1064.95 751 1061 C743.89 1055.69 736.83 1050.31 729.78 1044.92 C724.54 1040.92 719.28 1036.95 714 1033 C706.89 1027.69 699.83 1022.31 692.78 1016.92 C687.54 1012.92 682.28 1008.95 677 1005 C670.81 1000.37 664.65 995.69 658.5 991 C652.14 986.15 645.77 981.3 639.38 976.5 C638.73 976.02 638.09 975.53 637.43 975.04 C634.5 972.84 631.56 970.67 628.57 968.55 C627.56 967.84 626.54 967.12 625.5 966.38 C624.62 965.76 623.75 965.15 622.84 964.52 C622.24 964.02 621.63 963.52 621 963 C621 962.34 621 961.68 621 961 C620.42 960.73 619.84 960.45 619.24 960.17 C617.05 959.03 615.17 957.77 613.19 956.3 C612.46 955.76 611.72 955.22 610.96 954.66 C609.77 953.78 609.77 953.78 608.56 952.88 C607.73 952.26 606.9 951.64 606.04 951.01 C598.9 945.7 591.83 940.3 584.77 934.89 C579.24 930.67 573.66 926.55 568 922.5 C560.52 917.15 553.19 911.61 545.89 906.01 C540.14 901.61 534.34 897.28 528.5 893 C520.87 887.41 513.34 881.71 505.84 875.96 C500.1 871.58 494.32 867.26 488.5 863 C480.87 857.41 473.34 851.71 465.84 845.96 C460.1 841.58 454.32 837.26 448.5 833 C440.87 827.41 433.34 821.71 425.84 815.96 C420.1 811.58 414.32 807.26 408.5 803 C401.78 798.07 395.12 793.07 388.5 788 C378.75 780.54 368.9 773.25 359 766 C348.2 758.09 337.47 750.1 326.84 741.96 C321.1 737.58 315.32 733.26 309.5 729 C301.87 723.41 294.34 717.71 286.84 711.96 C281.1 707.58 275.32 703.26 269.5 699 C261.87 693.41 254.34 687.71 246.84 681.96 C241.1 677.58 235.32 673.26 229.5 669 C222.78 664.07 216.12 659.07 209.5 654 C202.77 648.85 196.01 643.76 189.19 638.75 C188.41 638.18 187.63 637.6 186.82 637.01 C183.83 634.81 180.84 632.62 177.85 630.42 C165.46 621.33 153.83 611.58 142.48 601.23 C140.44 599.39 138.37 597.6 136.3 595.8 C132.31 592.31 128.51 588.67 124.75 584.92 C124.1 584.27 123.44 583.62 122.77 582.95 C121.39 581.58 120.02 580.2 118.65 578.83 C116.58 576.76 114.5 574.7 112.42 572.64 C105.87 566.12 99.54 559.6 93.84 552.3 C91.91 549.89 89.86 547.63 87.75 545.38 C26.2 477.62 -12.86 385.71 -36 246 C-36.09 245.06 -36.17 244.12 -36.26 243.16 C-36.97 234.84 -37.18 226.58 -37.2 218.23 C-37.21 217.55 -37.21 216.86 -37.21 216.16 C-37.23 212.51 -37.24 208.86 -37.24 205.21 C-37.24 202.27 -37.26 199.34 -37.28 196.4 C-37.8 128.63 -23.52 63.36 0 0 Z " fill="#FB6C25" transform="translate(37,803)"/>
<path d="M0 0 C5.49 2.95 10.26 6.37 15.12 10.25 C16.72 11.51 18.32 12.76 19.92 14.02 C20.75 14.67 21.58 15.32 22.44 15.99 C34.26 25.24 46.28 34.25 58.38 43.12 C64 47.25 69.55 51.46 75.06 55.73 C77.85 57.89 80.67 60.01 83.5 62.12 C88.14 65.59 92.76 69.1 97.36 72.62 C105.09 78.53 112.84 84.38 120.69 90.12 C127.64 95.21 134.46 100.44 141.24 105.75 C146.53 109.89 151.89 113.91 157.31 117.88 C166.74 124.78 176.04 131.85 185.32 138.95 C198.5 149.03 211.71 159.07 225 169 C233.81 175.58 242.58 182.2 251.31 188.88 C258.05 194.03 264.84 199.11 271.69 204.12 C278.64 209.21 285.45 214.44 292.23 219.75 C297.6 223.95 303.06 228.03 308.56 232.06 C316.7 238.02 324.72 244.1 332.71 250.24 C336.99 253.53 341.28 256.79 345.56 260.06 C346.46 260.74 347.35 261.43 348.27 262.13 C354.13 266.59 360 271.01 365.9 275.42 C379.35 285.49 392.69 295.73 406 306 C401.85 310.45 397.24 313.89 392.31 317.44 C385.79 322.18 379.35 327.01 373 332 C366.13 337.39 359.15 342.6 352.11 347.75 C346.66 351.74 341.31 355.83 336 360 C329.13 365.39 322.15 370.6 315.11 375.75 C309.66 379.74 304.31 383.83 299 388 C292.13 393.39 285.15 398.6 278.11 403.75 C272.66 407.74 267.31 411.83 262 416 C255.13 421.39 248.15 426.6 241.11 431.75 C235.66 435.74 230.31 439.83 225 444 C218.13 449.39 211.15 454.6 204.11 459.75 C198.66 463.74 193.31 467.83 188 472 C181.1 477.41 174.1 482.65 167.03 487.82 C159.7 493.2 152.48 498.71 145.27 504.25 C133.46 513.33 121.61 522.33 109.6 531.14 C103.62 535.52 97.74 540.01 91.88 544.55 C85.18 549.72 78.43 554.85 71.68 559.96 C69.11 561.92 66.55 563.89 63.99 565.86 C45.57 579.91 27.33 589.16 3.77 589.3 C2.36 589.31 0.94 589.33 -0.47 589.36 C-28.41 589.94 -48.15 576.6 -69.55 560.16 C-74.55 556.33 -79.61 552.59 -84.69 548.88 C-91.64 543.79 -98.46 538.56 -105.24 533.25 C-111.3 528.51 -117.48 523.93 -123.69 519.39 C-130.55 514.35 -137.33 509.2 -144.09 504.03 C-150.04 499.49 -156.01 494.98 -162 490.5 C-169.84 484.63 -177.64 478.71 -185.43 472.77 C-191.23 468.34 -197.06 463.95 -202.9 459.58 C-209.37 454.73 -215.8 449.83 -222.22 444.92 C-227.46 440.92 -232.72 436.95 -238 433 C-245.11 427.69 -252.17 422.31 -259.22 416.92 C-264.46 412.92 -269.72 408.95 -275 405 C-282.11 399.69 -289.17 394.31 -296.22 388.92 C-301.46 384.92 -306.72 380.95 -312 377 C-319.11 371.69 -326.17 366.31 -333.22 360.92 C-338.46 356.92 -343.72 352.95 -349 349 C-355.19 344.37 -361.35 339.69 -367.5 335 C-379.9 325.54 -392.34 316.12 -405 307 C-400.53 302.19 -395.43 298.38 -390.19 294.44 C-389.25 293.73 -388.31 293.02 -387.35 292.29 C-381.28 287.7 -375.19 283.13 -369.1 278.58 C-363.54 274.42 -358.02 270.21 -352.5 266 C-345.72 260.83 -338.92 255.68 -332.09 250.57 C-326.59 246.46 -321.14 242.29 -315.69 238.12 C-308.95 232.97 -302.16 227.89 -295.31 222.88 C-288.37 217.79 -281.55 212.57 -274.78 207.26 C-268.53 202.37 -262.15 197.65 -255.75 192.96 C-249.72 188.55 -243.79 184.03 -237.88 179.45 C-226.34 170.54 -214.72 161.76 -202.95 153.15 C-196.8 148.63 -190.78 143.96 -184.77 139.25 C-178.61 134.44 -172.34 129.79 -166.03 125.18 C-158.7 119.8 -151.48 114.29 -144.27 108.75 C-132.58 99.77 -120.85 90.86 -108.95 82.15 C-102.8 77.63 -96.78 72.97 -90.78 68.26 C-84.53 63.37 -78.15 58.65 -71.75 53.96 C-65.72 49.55 -59.79 45.03 -53.88 40.45 C-41.46 30.87 -28.94 21.43 -16.29 12.15 C-10.83 8.14 -5.41 4.08 0 0 Z " fill="#FBA225" transform="translate(1063,1459)"/>
</svg>
